<svg width="127" height="58" viewBox="0 0 127 58" fill="none" xmlns="http://www.w3.org/2000/svg">
<path d="M63.5 57.2932C98.5701 57.2932 127 44.4677 127 28.6466C127 12.8255 98.5701 0 63.5 0C28.4299 0 0 12.8255 0 28.6466C0 44.4677 28.4299 57.2932 63.5 57.2932Z" fill="#4D529D"/>
<path d="M63.6633 56.0129C97.5613 56.0129 125.041 43.8323 125.041 28.8067C125.041 13.781 97.5613 1.60037 63.6633 1.60037C29.7652 1.60037 2.28537 13.781 2.28537 28.8067C2.28537 43.8323 29.7652 56.0129 63.6633 56.0129Z" fill="white"/>
<path d="M63.6632 53.7724C96.2991 53.7724 122.756 42.4516 122.756 28.4866C122.756 14.5216 96.2991 3.20074 63.6632 3.20074C31.0273 3.20074 4.57068 14.5216 4.57068 28.4866C4.57068 42.4516 31.0273 53.7724 63.6632 53.7724Z" fill="#4D529D"/>
<path d="M20.2416 44.4903L32.3213 12.4829H42.7686L54.8483 44.4903H44.401L42.7686 39.3691H32.3213L31.0154 44.4903H20.2416Z" fill="white"/>
<path d="M37.545 21.445L34.2802 32.3275H40.8097L37.545 21.445Z" fill="#4D529D"/>
<path d="M72.1517 44.4903L84.2314 12.4829H94.6787L106.758 44.4903H96.3111L94.6787 39.3691H84.2314L82.9255 44.4903H72.1517Z" fill="white"/>
<path d="M89.455 21.4449L86.1902 32.3275H92.7198L89.455 21.4449Z" fill="#4D529D"/>
<path d="M57.4928 19.8126C52.563 21.8931 49.2655 28.0705 50.5388 33.2237H50.3756L54.3259 44.1702L52.8894 40.1693C54.2606 41.3216 55.338 42.6339 57.0031 43.434C61.9982 45.8666 68.9848 45.0344 73.2943 41.7056C73.2943 41.7056 78.975 26.2141 77.4079 30.7591H77.2447C77.2447 26.2781 74.437 23.6215 70.1275 22.5972L71.4987 22.4052C75.09 21.445 75.4164 22.0851 79.9871 18.5643C81.293 17.5721 81.9133 13.6352 80.281 12.5149C79.5627 12.0348 78.2241 12.2908 77.9956 13.1871C77.7671 14.1473 78.8444 14.5314 78.975 15.3315C79.1709 16.6759 77.0488 17.9882 76.0367 18.5003C69.3113 21.765 58.9293 22.8853 58.9619 32.2635C58.9619 33.6398 59.2231 35.0801 59.974 36.2644C61.084 38.0248 63.2062 39.4651 65.3283 39.017C66.4056 38.793 68.9195 37.7367 68.0707 35.9763C67.2871 34.3439 66.0792 36.9365 65.4262 37.2886C64.1856 37.9288 62.9123 36.9685 62.2594 35.9763C59.7455 31.0472 64.0876 21.2849 70.5193 24.6457C77.7018 28.4866 74.8288 41.4496 67.1565 43.178C57.6887 45.3225 50.6367 34.76 53.8689 26.5661C54.5218 24.9018 55.5992 23.7175 57.1337 22.7253C58.1131 22.0851 59.8434 21.2849 60.3984 20.1647C60.7576 19.3965 59.7781 18.5963 59.4517 17.9562C58.9619 17.0279 58.5375 15.4276 59.0925 14.7234C60.3984 13.123 62.3573 12.803 64.4794 14.7234C65.4588 16.1317 65.2956 18.5643 65.2956 20.4847H66.275V12.1628H65.2956V13.123C60.6923 9.44219 52.9547 14.9475 57.4928 19.8126Z" fill="white"/>
</svg>
