<svg xmlns="http://www.w3.org/2000/svg" version="1.1" xmlns:xlink="http://www.w3.org/1999/xlink" xmlns:svgjs="http://svgjs.com/svgjs" width="1440" height="556" preserveAspectRatio="none" viewBox="0 0 1440 556"><g mask="url(&quot;#SvgjsMask1009&quot;)" fill="none"><rect width="1440" height="556" x="0" y="0" fill="rgba(241, 241, 241, 1)"></rect><path d="M0,387.783C70.395,372.006,125.973,326.451,193.524,301.13C284.864,266.891,412.747,294.473,466.347,212.973C518.175,134.167,464.167,26.654,432.46,-62.178C405.27,-138.356,349.337,-195.72,298.126,-258.328C245.275,-322.941,203.468,-399.835,127.668,-434.798C46.38,-472.293,-47.167,-477.79,-134.437,-457.852C-224.925,-437.179,-311.278,-392.511,-370.45,-320.997C-428.985,-250.253,-449.636,-157.323,-458.702,-65.951C-467.473,22.439,-456.282,110.759,-421.396,192.445C-385.892,275.578,-340.666,364.453,-258.652,402.47C-178.685,439.539,-86.007,407.059,0,387.783" fill="#e3e3e3"></path><path d="M1440 998.365C1546.126 990.777 1656.524 1089.1509999999998 1750.1309999999999 1038.5729999999999 1842.974 988.408 1834.531 852.006 1883.693 758.6279999999999 1936.7649999999999 657.824 2048.705 582.145 2050.4030000000002 468.23699999999997 2052.142 351.596 1981.913 238.848 1892.558 163.856 1808.186 93.04599999999999 1690.138 91.88600000000002 1581.356 74.584 1485.809 59.387 1387.522 34.875 1297.044 69.137 1209.311 102.36000000000001 1169.292 199.22500000000002 1096.368 258.241 1002.461 334.238 855.156 353.975 807.768 465.099 759.592 578.07 803.206 711.809 855.571 822.9 907.565 933.2049999999999 983.202 1049.99 1099.997 1085.056 1214.333 1119.384 1320.926 1006.8779999999999 1440 998.365" fill="#ffffff"></path></g><defs><mask id="SvgjsMask1009"><rect width="1440" height="556" fill="#ffffff"></rect></mask></defs></svg>