<svg id="visual" viewBox="0 0 900 600" width="900" height="600" xmlns="http://www.w3.org/2000/svg" xmlns:xlink="http://www.w3.org/1999/xlink" version="1.1"><rect x="0" y="0" width="900" height="600" fill="#ffffff"></rect><defs><linearGradient id="grad1_0" x1="33.3%" y1="0%" x2="100%" y2="100%"><stop offset="20%" stop-color="#ffffff" stop-opacity="1"></stop><stop offset="80%" stop-color="#ffffff" stop-opacity="1"></stop></linearGradient></defs><defs><linearGradient id="grad2_0" x1="0%" y1="0%" x2="66.7%" y2="100%"><stop offset="20%" stop-color="#ffffff" stop-opacity="1"></stop><stop offset="80%" stop-color="#ffffff" stop-opacity="1"></stop></linearGradient></defs><g transform="translate(900, 0)"><path d="M0 486.7C-59.7 469.3 -119.4 451.9 -178.3 430.5C-237.3 409.1 -295.4 383.7 -342.9 342.9C-390.5 302.2 -427.5 246 -449.7 186.3C-471.9 126.5 -479.3 63.3 -486.7 0L0 0Z" fill="#eeeeee"></path></g><g transform="translate(0, 600)"><path d="M0 -486.7C61.4 -458.9 122.8 -431 162.3 -391.7C201.7 -352.5 219.2 -301.9 270.8 -270.8C322.4 -239.7 408 -228.2 449.7 -186.3C491.4 -144.4 489.1 -72.2 486.7 0L0 0Z" fill="#eeeeee"></path></g></svg>