<svg width="20" height="20" viewBox="0 0 20 20" fill="none" xmlns="http://www.w3.org/2000/svg">
<path d="M17.7778 0H2.22222C0.994444 0 0 0.994444 0 2.22222V17.7778C0 19.0056 0.994444 20 2.22222 20H17.7778C19.0056 20 20 19.0056 20 17.7778V2.22222C20 0.994444 19.0056 0 17.7778 0ZM6.66667 15.5556H3.86333V7.77778H6.66667V15.5556ZM5.21556 6.35222C4.35889 6.35222 3.78667 5.78111 3.78667 5.01889C3.78667 4.25667 4.35778 3.68556 5.31 3.68556C6.16667 3.68556 6.73889 4.25667 6.73889 5.01889C6.73889 5.78111 6.16778 6.35222 5.21556 6.35222ZM16.6667 15.5556H13.9533V11.3044C13.9533 10.1289 13.23 9.85778 12.9589 9.85778C12.6878 9.85778 11.7833 10.0389 11.7833 11.3044C11.7833 11.4856 11.7833 15.5556 11.7833 15.5556H8.98V7.77778H11.7833V8.86333C12.1444 8.23 12.8678 7.77778 14.2244 7.77778C15.5811 7.77778 16.6667 8.86333 16.6667 11.3044V15.5556Z" fill="white"/>
</svg>
