<svg width="22" height="22" viewBox="0 0 22 22" fill="none" xmlns="http://www.w3.org/2000/svg">
<path d="M16.5 0C14.7108 0 13.1351 0.87301 12.1301 2.2H2.2C0.9845 2.2 0 3.1845 0 4.4V19.8C0 19.9958 0.0343406 20.1814 0.0816406 20.3629L11.7154 8.7291C12.0141 9.45663 12.3596 10.1472 12.6973 10.7916C12.7054 10.8071 12.7106 10.8212 12.7188 10.8367L11.4555 12.1L19.7184 20.3629C19.7657 20.1814 19.8 19.9958 19.8 19.8V11.7262C19.9742 11.3555 20.1613 10.9787 20.3607 10.5896C21.1296 9.08815 22 7.3854 22 5.5C22 2.4673 19.5327 0 16.5 0ZM16.4699 2.23223C18.2926 2.23223 19.7699 3.70953 19.7699 5.53223C19.7688 8.27783 16.9146 11.0331 16.9146 13.9305C16.9146 14.1571 16.6944 14.3258 16.4678 14.3258C16.2412 14.3258 16.0553 14.1248 16.0553 13.8982C16.0553 11.0008 13.1699 8.53083 13.1699 5.53223C13.1699 3.70953 14.6472 2.23223 16.4699 2.23223ZM5.50215 4.4C6.35795 4.4 7.13623 4.72478 7.72363 5.25938L6.79551 6.18965C6.44681 5.89155 5.99605 5.7084 5.50215 5.7084C4.40215 5.7084 3.51055 6.6 3.51055 7.7C3.51055 8.7989 4.40215 9.6916 5.50215 9.6916C6.42505 9.6916 7.06394 9.14341 7.29824 8.37891H5.50215V7.11992L8.61094 7.12422C8.88154 8.41012 8.27195 11 5.50215 11C3.67835 11 2.2 9.5227 2.2 7.7C2.2 5.8773 3.67835 4.4 5.50215 4.4ZM16.5 4.4C16.2083 4.4 15.9285 4.51589 15.7222 4.72218C15.5159 4.92847 15.4 5.20826 15.4 5.5C15.4 5.79174 15.5159 6.07153 15.7222 6.27782C15.9285 6.48411 16.2083 6.6 16.5 6.6C16.7917 6.6 17.0715 6.48411 17.2778 6.27782C17.4841 6.07153 17.6 5.79174 17.6 5.5C17.6 5.20826 17.4841 4.92847 17.2778 4.72218C17.0715 4.51589 16.7917 4.4 16.5 4.4ZM9.9 13.6555L1.63711 21.9184C1.81861 21.9657 2.0042 22 2.2 22H17.6C17.7958 22 17.9814 21.9657 18.1629 21.9184L9.9 13.6555Z" fill="white"/>
</svg>
