<svg width="35" height="25" viewBox="0 0 35 25" fill="none" xmlns="http://www.w3.org/2000/svg">
<path d="M35 18.5156C35 21.8379 33.1554 24.5312 29.5312 24.5312H5.46875C1.84461 24.5312 0 21.8379 0 18.5156V6.48438C0 3.16211 1.84461 0.46875 5.46875 0.46875H29.5312C33.1554 0.46875 35 3.16211 35 6.48438V18.5156Z" fill="#EC1C24"/>
<path fill-rule="evenodd" clip-rule="evenodd" d="M21.7536 15.9562C20.4947 17.9201 17.8735 19.1587 15.131 18.3576C12.5426 17.5996 10.7647 15.0916 10.9118 12.3868C11.0551 9.66991 13.096 7.35936 15.7484 6.89069C18.5588 6.39139 20.8163 7.89803 21.7804 9.47522C20.638 8.35194 19.3096 7.84608 17.7543 8.02381C16.5359 8.16381 15.5176 8.71452 14.7203 9.6442C13.1595 11.4609 13.2169 14.1855 14.8466 15.8999C15.7812 16.8832 16.9307 17.3978 18.2875 17.4104C19.6432 17.4202 20.7933 16.9073 21.7569 15.959" fill="white"/>
<path d="M24.1883 10.5291L25.2984 11.5594L26.7794 11.2312L26.1412 12.6094L26.9117 13.9115L25.4078 13.7305L24.4021 14.868L24.1117 13.3794L22.7183 12.7756L24.0428 12.0406L24.1883 10.5291Z" fill="white"/>
</svg>
