<svg width="30" height="29" viewBox="0 0 30 29" fill="none" xmlns="http://www.w3.org/2000/svg">
<g clip-path="url(#clip0_92_6)">
<path d="M26.6667 3.16666H3.33333C2.44928 3.16666 1.60143 3.51785 0.976311 4.14297C0.35119 4.76809 0 5.61593 0 6.49999L0 14H30V6.49999C30 5.61593 29.6488 4.76809 29.0237 4.14297C28.3986 3.51785 27.5507 3.16666 26.6667 3.16666Z" fill="#005BBB"/>
<path d="M30 21.5C30 22.3841 29.6488 23.2319 29.0237 23.857C28.3986 24.4821 27.5507 24.8333 26.6667 24.8333H3.33333C2.44928 24.8333 1.60143 24.4821 0.976311 23.857C0.35119 23.2319 0 22.3841 0 21.5V14H30V21.5Z" fill="#FFD500"/>
</g>
<defs>
<clipPath id="clip0_92_6">
<rect width="30" height="30" fill="white" transform="translate(0 -1)"/>
</clipPath>
</defs>
</svg>
