<svg width="70" height="65" viewBox="0 0 70 65" fill="none" xmlns="http://www.w3.org/2000/svg">
<path d="M61.25 4.25034C62.4103 4.25034 63.5231 4.69814 64.3436 5.49524C65.1641 6.29233 65.625 7.37342 65.625 8.50068V42.5034C65.625 43.6307 65.1641 44.7118 64.3436 45.5088C63.5231 46.3059 62.4103 46.7537 61.25 46.7537H19.3113C16.9908 46.7542 14.7656 47.6501 13.125 49.2444L4.375 57.7451V8.50068C4.375 7.37342 4.83594 6.29233 5.65641 5.49524C6.47688 4.69814 7.58968 4.25034 8.75 4.25034H61.25ZM8.75 0C6.42936 0 4.20376 0.895605 2.56282 2.48979C0.921872 4.08398 0 6.24616 0 8.50068L0 62.8753C9.19401e-05 63.2958 0.128593 63.7068 0.369238 64.0564C0.609883 64.4059 0.951856 64.6782 1.35187 64.8388C1.75189 64.9995 2.19197 65.0412 2.61641 64.9587C3.04085 64.8763 3.43057 64.6734 3.73625 64.3756L16.2181 52.2494C17.0384 51.4523 18.151 51.0043 19.3113 51.0041H61.25C63.5706 51.0041 65.7962 50.1085 67.4372 48.5143C69.0781 46.9201 70 44.7579 70 42.5034V8.50068C70 6.24616 69.0781 4.08398 67.4372 2.48979C65.7962 0.895605 63.5706 0 61.25 0L8.75 0Z" fill="#4D6685"/>
<path d="M13.4343 15.1096C13.4343 14.5501 13.6616 14.0135 14.066 13.6179C14.4704 13.2223 15.019 13 15.5909 13H54.4091C54.981 13 55.5296 13.2223 55.934 13.6179C56.3384 14.0135 56.5657 14.5501 56.5657 15.1096C56.5657 15.6692 56.3384 16.2058 55.934 16.6014C55.5296 16.997 54.981 17.2193 54.4091 17.2193H15.5909C15.019 17.2193 14.4704 16.997 14.066 16.6014C13.6616 16.2058 13.4343 15.6692 13.4343 15.1096ZM13.4343 25.6579C13.4343 25.0984 13.6616 24.5618 14.066 24.1661C14.4704 23.7705 15.019 23.5482 15.5909 23.5482H54.4091C54.981 23.5482 55.5296 23.7705 55.934 24.1661C56.3384 24.5618 56.5657 25.0984 56.5657 25.6579C56.5657 26.2174 56.3384 26.754 55.934 27.1496C55.5296 27.5453 54.981 27.7675 54.4091 27.7675H15.5909C15.019 27.7675 14.4704 27.5453 14.066 27.1496C13.6616 26.754 13.4343 26.2174 13.4343 25.6579ZM13.4343 36.2061C13.4343 35.6466 13.6616 35.11 14.066 34.7144C14.4704 34.3188 15.019 34.0965 15.5909 34.0965H37.1566C37.7285 34.0965 38.2771 34.3188 38.6815 34.7144C39.0859 35.11 39.3131 35.6466 39.3131 36.2061C39.3131 36.7657 39.0859 37.3023 38.6815 37.6979C38.2771 38.0935 37.7285 38.3158 37.1566 38.3158H15.5909C15.019 38.3158 14.4704 38.0935 14.066 37.6979C13.6616 37.3023 13.4343 36.7657 13.4343 36.2061Z" fill="#4D6685"/>
</svg>
