<svg width="70" height="70" viewBox="0 0 70 70" fill="none" xmlns="http://www.w3.org/2000/svg">
<path d="M69.8329 14.4845C69.9987 14.8841 70.0424 15.3239 69.9583 15.7483C69.8742 16.1728 69.6661 16.5627 69.3604 16.8689L60.6105 25.6189C60.407 25.8219 60.1654 25.9828 59.8997 26.0924C59.6339 26.202 59.3492 26.2581 59.0617 26.2576H46.8425L40.9232 32.177C41.5905 33.5739 41.7424 35.1617 41.3521 36.6598C40.9619 38.1579 40.0546 39.4698 38.7906 40.3637C37.5266 41.2575 35.9874 41.6757 34.4449 41.5443C32.9024 41.413 31.456 40.7406 30.3613 39.6459C29.2667 38.5512 28.5942 37.1048 28.4629 35.5623C28.3316 34.0198 28.7498 32.4805 29.6436 31.2165C30.5374 29.9525 31.8493 29.0452 33.3473 28.6549C34.8454 28.2647 36.4332 28.4166 37.8301 29.0839L43.7494 23.1645V10.9451C43.7489 10.6577 43.8051 10.3729 43.9147 10.1072C44.0243 9.84142 44.1852 9.59988 44.3882 9.39636L53.1381 0.64636C53.444 0.339643 53.8341 0.130674 54.259 0.0459439C54.6838 -0.0387858 55.1243 0.00454019 55.5244 0.170429C55.9246 0.336319 56.2666 0.6173 56.5069 0.977752C56.7472 1.3382 56.875 1.7619 56.8743 2.19511V13.1326H67.8116C68.2445 13.1327 68.6676 13.2612 69.0274 13.5018C69.3872 13.7425 69.6675 14.0845 69.8329 14.4845ZM62.5311 17.5076H54.6868C54.1066 17.5076 53.5503 17.2771 53.14 16.8669C52.7298 16.4567 52.4993 15.9003 52.4993 15.3201V7.47574L48.1244 11.8507V21.8826H58.1561L62.5311 17.5076ZM68.2798 24.1357C69.3954 27.557 69.9991 31.2145 69.9991 35.0076C69.9975 42.4011 67.6546 49.6042 63.3065 55.5839C58.9584 61.5636 52.8284 66.0127 45.7955 68.2933C38.7626 70.5739 31.1882 70.5688 24.1585 68.2786C17.1287 65.9885 11.0047 61.531 6.6647 55.5455C2.32469 49.5599 -0.00839499 42.3536 2.26981e-05 34.9602C0.00844038 27.5667 2.35793 20.3658 6.71156 14.3901C11.0652 8.41438 17.1993 3.97087 24.2343 1.69676C31.2692 -0.57735 38.8436 -0.565238 45.8713 1.73136L42.3363 5.26636C35.8421 3.66508 29.0023 4.23401 22.8618 6.8862C16.7214 9.53839 11.6181 14.128 8.33173 19.9537C5.04535 25.7795 3.7566 32.521 4.6624 39.1482C5.5682 45.7753 8.61874 51.9237 13.3479 56.6539C18.0771 61.384 24.2248 64.4358 30.8517 65.3429C37.4786 66.25 44.2203 64.9626 50.0466 61.6773C55.8729 58.392 60.4634 53.2895 63.1168 47.1495C65.7702 41.0096 66.3404 34.1697 64.7404 27.6751L68.2798 24.1357ZM56.4368 30.6326C57.3764 35.2398 56.8065 40.0271 54.8116 44.2849C52.8167 48.5427 49.5029 52.0444 45.3615 54.2709C41.2202 56.4975 36.4716 57.3303 31.8197 56.646C27.1679 55.9617 22.8603 53.7967 19.5355 50.4719C16.2107 47.147 14.0457 42.8394 13.3614 38.1875C12.6771 33.5355 13.51 28.7869 15.7365 24.6455C17.963 20.5041 21.4646 17.1903 25.7224 15.1953C29.9802 13.2004 34.7674 12.6305 39.3745 13.5701V18.0589C35.6579 17.1 31.7291 17.3898 28.1933 18.8834C24.6575 20.3771 21.7108 22.9918 19.8072 26.3249C17.9036 29.6579 17.1485 33.5244 17.6584 37.3287C18.1683 41.1331 19.9148 44.6643 22.6289 47.3784C25.343 50.0926 28.8741 51.8391 32.6785 52.349C36.4828 52.8589 40.3492 52.1038 43.6822 50.2002C47.0152 48.2965 49.6299 45.3498 51.1235 41.814C52.6172 38.2781 52.9069 34.3493 51.9481 30.6326H56.4368Z" fill="#4D6685"/>
</svg>
