<svg width="583" height="455" viewBox="0 0 583 455" fill="none" xmlns="http://www.w3.org/2000/svg">
<path d="M3.4397 251.786C5.80936 269.909 14.6906 286.551 28.4267 298.608C42.1628 310.665 59.8158 317.313 78.0928 317.313C96.3699 317.313 114.023 310.665 127.759 298.608C141.495 286.551 150.376 269.909 152.746 251.786H3.4397ZM410.222 403.354C410.227 404.887 409.929 406.405 409.347 407.822C408.764 409.239 407.908 410.528 406.828 411.614C405.747 412.7 404.463 413.562 403.048 414.152C401.634 414.741 400.118 415.046 398.585 415.049H181.056C174.667 415.049 169.396 409.802 169.396 403.354C169.412 400.274 170.648 397.326 172.834 395.155C175.019 392.985 177.976 391.77 181.056 391.776H398.574C405.01 391.776 410.222 396.953 410.222 403.354ZM170.667 421.008H408.963V454.67H170.667V421.008ZM430.254 251.786C432.607 269.921 441.481 286.579 455.217 298.651C468.954 310.722 486.614 317.382 504.901 317.385C523.186 317.386 540.844 310.727 554.576 298.654C568.308 286.581 577.173 269.92 579.514 251.786H430.254ZM575.409 228.361L514.276 144.153H546.959C554.911 144.153 561.312 137.635 561.312 129.578C561.312 121.591 554.899 115.143 546.959 115.143H373.831C368.692 100.986 359.915 88.4335 348.382 78.7476C336.85 69.0616 322.97 62.5843 308.139 59.9674V14.5284C308.139 6.44802 301.656 4.27293e-05 293.622 4.27293e-05L292.27 0.151623L290.917 4.27293e-05C289.009 -0.00459467 287.12 0.368285 285.357 1.09719C283.594 1.8261 281.993 2.89663 280.646 4.2471C279.299 5.59757 278.232 7.20127 277.507 8.96582C276.783 10.7304 276.414 12.6209 276.424 14.5284V59.9441C261.595 62.5591 247.716 69.0361 236.188 78.7226C224.659 88.409 215.887 100.963 210.755 115.119H37.5918C29.698 115.119 23.2617 121.567 23.2617 129.554C23.2617 137.623 29.698 144.129 37.5918 144.129H68.7823L7.6373 228.338H0V243.892H156.221V228.338H148.548L87.4267 144.153H229.317C229.317 140.865 229.679 137.635 230.168 134.545C230.67 133.087 231.008 131.606 231.008 130.079C233.636 119.001 239.265 108.862 247.276 100.772C255.287 92.6827 265.372 86.956 276.424 84.2202V243.927H275.817C274.57 304 245.991 356.388 203.595 385.829H380.99C338.583 356.388 310.028 304 308.71 243.927H308.15V84.2202C319.2 86.9567 329.283 92.6839 337.293 100.773C345.302 108.863 350.928 119.002 353.555 130.079C353.601 131.606 353.916 133.087 354.429 134.545C354.895 137.646 355.187 140.865 355.187 144.153H495.597L434.452 228.361H426.826V243.916H583V228.361H575.409ZM71.8839 228.361H23.0868L71.8839 161.141V228.361ZM84.3718 228.361V161.141L133.169 228.361H84.3718ZM498.675 228.361H449.854L498.675 161.141V228.361ZM511.104 228.361V161.141L559.96 228.361H511.104ZM92.5921 94.8775C92.4851 98.6486 90.9118 102.229 88.2065 104.859C85.5012 107.489 81.8772 108.96 78.1045 108.96C74.3318 108.96 70.7078 107.489 68.0025 104.859C65.2972 102.229 63.724 98.6486 63.617 94.8775C63.617 86.8787 70.1232 80.3491 78.1337 80.3491C86.1091 80.3374 92.5921 86.8787 92.5921 94.8775ZM519.395 94.1079C519.395 102.165 512.912 108.555 504.913 108.555C503.011 108.567 501.125 108.202 499.365 107.481C497.604 106.76 496.004 105.696 494.658 104.353C493.311 103.009 492.244 101.412 491.519 99.6537C490.793 97.8951 490.424 96.0102 490.431 94.1079C490.353 92.1572 490.67 90.2109 491.362 88.3856C492.055 86.5603 493.109 84.8937 494.461 83.4859C495.814 82.078 497.437 80.958 499.233 80.1928C501.029 79.4277 502.961 79.0333 504.913 79.0333C506.865 79.0333 508.797 79.4277 510.593 80.1928C512.389 80.958 514.012 82.078 515.365 83.4859C516.717 84.8937 517.771 86.5603 518.464 88.3856C519.156 90.2109 519.473 92.1572 519.395 94.1079Z" fill="black" fill-opacity="0.05"/>
</svg>
