<svg width="70" height="79" viewBox="0 0 70 79" fill="none" xmlns="http://www.w3.org/2000/svg">
<path fill-rule="evenodd" clip-rule="evenodd" d="M21 0C19.1435 0 17.363 0.640227 16.0503 1.77984C14.7375 2.91945 14 4.46509 14 6.07674H7C5.14348 6.07674 3.36301 6.71697 2.05025 7.85658C0.737497 8.99619 0 10.5418 0 12.1535V68.8698C0 70.4814 0.737497 72.0271 2.05025 73.1667C3.36301 74.3063 5.14348 74.9465 7 74.9465H35V70.8953H7C6.38116 70.8953 5.78767 70.6819 5.35008 70.3021C4.9125 69.9222 4.66667 69.407 4.66667 68.8698V12.1535C4.66667 11.6163 4.9125 11.1011 5.35008 10.7212C5.78767 10.3413 6.38116 10.1279 7 10.1279H14C14 11.7396 14.7375 13.2852 16.0503 14.4248C17.363 15.5644 19.1435 16.2047 21 16.2047H39.6667C41.5232 16.2047 43.3037 15.5644 44.6164 14.4248C45.9292 13.2852 46.6667 11.7396 46.6667 10.1279H53.6667C54.2855 10.1279 54.879 10.3413 55.3166 10.7212C55.7542 11.1011 56 11.6163 56 12.1535V42.5372H60.6667V12.1535C60.6667 10.5418 59.9292 8.99619 58.6164 7.85658C57.3037 6.71697 55.5232 6.07674 53.6667 6.07674H46.6667C46.6667 4.46509 45.9292 2.91945 44.6164 1.77984C43.3037 0.640227 41.5232 0 39.6667 0H21ZM18.6667 6.07674C18.6667 5.53953 18.9125 5.02431 19.3501 4.64444C19.7877 4.26457 20.3812 4.05116 21 4.05116H39.6667C40.2855 4.05116 40.879 4.26457 41.3166 4.64444C41.7542 5.02431 42 5.53953 42 6.07674V10.1279C42 10.6651 41.7542 11.1803 41.3166 11.5602C40.879 11.9401 40.2855 12.1535 39.6667 12.1535H21C20.3812 12.1535 19.7877 11.9401 19.3501 11.5602C18.9125 11.1803 18.6667 10.6651 18.6667 10.1279V6.07674ZM28 30.3837V24.307H32.6667V30.3837H39.6667V34.4349H32.6667V40.5116H28V34.4349H21V30.3837H28ZM37.3333 48.614C37.3333 48.0767 37.5792 47.5615 38.0167 47.1816C38.4543 46.8018 39.0478 46.5884 39.6667 46.5884H67.6667C68.2855 46.5884 68.879 46.8018 69.3166 47.1816C69.7542 47.5615 70 48.0767 70 48.614V62.3656C69.9999 64.6998 69.336 66.9978 68.0673 69.0557C66.7985 71.1136 64.9642 72.8678 62.727 74.1626L54.9617 78.6594C54.5782 78.8815 54.1276 79 53.6667 79C53.2057 79 52.7551 78.8815 52.3717 78.6594L44.6063 74.1626C42.3695 72.868 40.5354 71.1142 39.2666 69.0566C37.9979 66.999 37.3338 64.7014 37.3333 62.3677V48.614ZM42 50.6395V62.3656C42.0002 64.033 42.4746 65.6745 43.3811 67.1444C44.2876 68.6144 45.5981 69.8673 47.1963 70.792L53.6667 74.5414L60.137 70.7941C61.7352 69.8694 63.0457 68.6164 63.9522 67.1465C64.8587 65.6765 65.3331 64.035 65.3333 62.3677V50.6395H42ZM52.983 66.2507L62.3163 58.1484L59.017 55.2842L51.3333 61.9544L48.3163 59.3354L45.017 62.1995L49.6837 66.2507C50.1212 66.6304 50.7146 66.8438 51.3333 66.8438C51.952 66.8438 52.5454 66.6304 52.983 66.2507Z" fill="#4D6685"/>
</svg>
