<svg width="71" height="80" viewBox="0 0 71 80" fill="none" xmlns="http://www.w3.org/2000/svg">
<path d="M41.7026 26.6263H15.9993C15.7688 26.6266 15.5425 26.6777 15.3432 26.7744C15.1438 26.871 14.9785 27.0098 14.8638 27.1768C14.7491 27.3438 14.6891 27.5331 14.6898 27.7256C14.6905 27.9181 14.7519 28.1071 14.8679 28.2734C17.9767 32.6944 22.5155 35.4003 27.3214 38.2681L27.7379 38.5153C27.96 38.6485 28.2266 38.7201 28.5 38.7201C28.7735 38.7201 29.04 38.6485 29.2622 38.5153C29.9483 38.1063 30.6398 37.7038 31.3312 37.3013C35.6238 34.7988 40.0631 32.2131 42.8314 28.2734C42.949 28.1074 43.0117 27.9184 43.0134 27.7256C43.015 27.5327 42.9555 27.3429 42.8408 27.1756C42.7261 27.0082 42.5603 26.8692 42.3604 26.7727C42.1605 26.6762 41.9335 26.6257 41.7026 26.6263ZM29.8305 35.5053L28.5026 36.2819C24.561 33.9303 21.0776 31.815 18.4298 28.8116H39.2329C36.7683 31.4628 33.3819 33.4359 29.8305 35.5053ZM2.25453 77H54.7481C55.0954 77 55.4285 76.8848 55.6741 76.6797C55.9197 76.4745 56.0576 76.1963 56.0576 75.9063C56.0576 75.6162 55.9197 75.338 55.6741 75.1329C55.4285 74.9277 55.0954 74.8125 54.7481 74.8125H2.25453C1.90722 74.8125 1.57414 74.9277 1.32856 75.1329C1.08297 75.338 0.945007 75.6162 0.945007 75.9063C0.945007 76.1963 1.08297 76.4745 1.32856 76.6797C1.57414 76.8848 1.90722 77 2.25453 77ZM28.5 48.5625C28.1527 48.5625 27.8196 48.6777 27.574 48.8829C27.3285 49.088 27.1905 49.3662 27.1905 49.6563V51.8438C27.1905 52.1338 27.3285 52.412 27.574 52.6172C27.8196 52.8223 28.1527 52.9375 28.5 52.9375C28.8473 52.9375 29.1804 52.8223 29.426 52.6172C29.6716 52.412 29.8095 52.1338 29.8095 51.8438V49.6563C29.8095 49.3662 29.6716 49.088 29.426 48.8829C29.1804 48.6777 28.8473 48.5625 28.5 48.5625ZM28.5 42C28.1527 42 27.8196 42.1152 27.574 42.3204C27.3285 42.5255 27.1905 42.8037 27.1905 43.0938V45.2813C27.1905 45.5713 27.3285 45.8495 27.574 46.0547C27.8196 46.2598 28.1527 46.375 28.5 46.375C28.8473 46.375 29.1804 46.2598 29.426 46.0547C29.6716 45.8495 29.8095 45.5713 29.8095 45.2813V43.0938C29.8095 42.8037 29.6716 42.5255 29.426 42.3204C29.1804 42.1152 28.8473 42 28.5 42Z" fill="#4D6685"/>
<path d="M68.3002 8.75067C69.7909 8.75067 71 7.65333 71 6.30533V2.444C71 1.09333 69.7909 0 68.3002 0H3.69978C2.20751 0 1.00001 1.09333 1.00001 2.444V6.30533C1.00001 7.65333 2.20751 8.74933 3.69978 8.74933H5.37501V71.2493H3.69978C2.20751 71.2493 1.00001 72.3427 1.00001 73.6933V77.5533C1.00001 78.904 2.20751 80 3.69978 80H68.2986C69.7909 80 71 78.904 71 77.5533V73.6933C71 72.3427 69.7909 71.2493 68.3002 71.2493H66.625V8.75067H68.3002ZM8.29114 71.2507V8.75067H11.0339C10.3259 8.75067 9.75001 9.19733 9.75001 9.74933V12.7493C9.75001 13.3013 10.3196 13.7453 11.0259 13.7493V13.7507C11.0259 24.8027 13.1386 35.5427 28.4177 39.244L29.1718 39.444C29.8321 39.62 30.6227 39.828 31.0268 40C30.6227 40.1693 29.8416 40.3773 29.1846 40.5507L28.4639 40.744C13.1402 44.4587 11.0275 55.1987 11.0275 66.2507V66.252C10.3227 66.256 9.7516 66.7 9.7516 67.2493V70.2493C9.7516 70.8013 10.3259 71.2507 11.0355 71.2507H8.29114ZM41.9596 42.94L42.7455 43.148C53.5732 45.772 57.8002 51.7413 58.0452 65H37.2982C37.0898 58.8347 36.568 43.0893 36.568 40C36.568 38.9533 38.878 37.4853 39.9407 36.9613C44.4255 34.7413 50.1941 30.3493 50.1941 25.7787H21.8027C21.8027 30.3493 27.5714 34.7413 32.0561 36.9613C33.1157 37.4867 35.4289 38.9533 35.4289 40C35.4289 43.1707 34.9086 58.8507 34.7002 65H13.9548C14.1982 51.7453 18.43 45.7733 29.2991 43.1373L30.0452 42.9413C32.1341 42.3893 34.1068 41.8667 34.1068 40.0013C34.1068 38.1333 32.1277 37.6093 30.0293 37.0573L29.253 36.8507C18.4268 34.2267 14.1998 28.2587 13.9564 15.0013H58.0484C57.8034 28.2587 53.5732 34.2307 42.7073 36.8627L41.9802 37.056C39.8802 37.608 37.8964 38.132 37.8964 40.0013C37.8932 41.8653 39.8691 42.388 41.9596 42.94ZM63.7073 71.2507H60.9677C61.6741 71.2507 62.25 70.8013 62.25 70.2493V67.2493C62.25 66.6987 61.6773 66.2547 60.9725 66.252V66.2507C60.9725 55.1973 58.8598 44.456 43.5807 40.7547L42.8171 40.552C42.1616 40.3787 41.3773 40.1707 40.9732 40.0013C41.3789 39.8293 42.1711 39.6213 42.833 39.4453L43.5377 39.2573C58.8598 35.5453 60.9725 24.804 60.9725 13.7507V13.7493C61.6757 13.7467 62.25 13.3027 62.25 12.7493V9.74933C62.25 9.19733 61.6757 8.75067 60.9677 8.75067H63.7073V71.2507Z" fill="#4D6685"/>
</svg>
